<?xml version="1.0" encoding="utf-8"?>
<svg width="128px" height="128px" viewBox="0 0 128 128" version="1.1" xmlns:xlink="http://www.w3.org/1999/xlink" xmlns="http://www.w3.org/2000/svg">
  <g id="编组-12-复制-2">
    <g id="编组-11" transform="translate(0 80)">
      <path d="M128 0L128 0L128 40C128 44.4189 124.419 48 120 48L8 48C3.58112 48 0 44.4189 0 40L0 0L128 0Z" id="矩形-4-复制-22" fill="#00CCB8" stroke="none" />
      <g id="otne" transform="translate(26.5 8)">
        <g id="otne" fill="#FFFFFF">
          <path d="M1.952 13.888L1.952 23.136C1.952 24.384 2.848 25.28 4.096 25.28L15.808 25.28C17.184 25.28 17.92 24.544 17.92 23.168L17.92 14.208C17.92 12.768 16.928 11.776 15.68 11.776L4.064 11.776C2.688 11.776 1.952 12.512 1.952 13.888ZM11.744 15.488L11.744 21.568C11.744 21.984 11.52 22.208 11.104 22.208L8.672 22.208C8.256 22.208 8.032 21.984 8.032 21.568L8.032 15.488C8.032 15.072 8.256 14.848 8.672 14.848L11.104 14.848C11.52 14.848 11.744 15.072 11.744 15.488ZM22.528 11.776L21.632 11.776C21.024 11.776 20.672 12.128 20.672 12.736L20.672 13.888C20.672 14.496 21.024 14.848 21.632 14.848L22.528 14.848C22.944 14.848 23.168 15.072 23.168 15.488L23.168 23.136C23.168 24.256 24.032 25.28 25.28 25.28L31.168 25.28C31.776 25.28 32.128 24.928 32.128 24.32L32.128 23.168C32.128 22.56 31.776 22.208 31.168 22.208L29.76 22.208C29.344 22.208 29.12 21.984 29.12 21.568L29.12 15.488C29.12 15.072 29.344 14.848 29.76 14.848L31.84 14.848C32.448 14.848 32.8 14.496 32.8 13.888L32.8 12.736C32.8 12.128 32.448 11.776 31.84 11.776L29.76 11.776C29.344 11.776 29.12 11.552 29.12 11.136L29.12 9.952C29.12 9.344 28.768 8.992 28.16 8.992L23.328 8.992C22.56 8.992 22.272 9.504 22.688 10.144L22.944 10.56C23.104 10.848 23.168 11.04 23.168 11.328C23.168 11.584 22.944 11.776 22.528 11.776ZM50.368 11.776L36.736 11.776C35.968 11.776 35.68 12.288 36.096 12.928L36.352 13.344C36.512 13.632 36.576 13.824 36.576 14.112L36.576 24.32C36.576 24.928 36.928 25.28 37.536 25.28L41.76 25.28C42.368 25.28 42.72 24.928 42.72 24.32L42.72 15.488C42.72 15.072 42.944 14.848 43.36 14.848L45.76 14.848C46.176 14.848 46.4 15.072 46.4 15.488L46.4 24.32C46.4 24.928 46.752 25.28 47.36 25.28L51.52 25.28C52.128 25.28 52.48 24.928 52.48 24.32L52.48 13.888C52.48 12.512 51.712 11.776 50.368 11.776ZM70.336 11.776L58.688 11.776C57.312 11.776 56.576 12.512 56.576 13.888L56.576 22.56C56.576 22.976 56.576 23.296 56.768 23.68C57.28 24.736 57.76 25.28 58.784 25.28L71.488 25.28C72.096 25.28 72.448 24.928 72.448 24.32L72.448 21.952C72.448 21.088 71.872 20.864 71.264 21.472L70.848 21.888C70.624 22.112 70.4 22.208 70.08 22.208L63.36 22.208C62.944 22.208 62.72 21.984 62.72 21.568L62.72 20.384C62.72 19.968 62.944 19.744 63.36 19.744L71.488 19.744C72.096 19.744 72.448 19.392 72.448 18.784L72.448 13.888C72.448 12.512 71.712 11.776 70.336 11.776ZM66.496 15.488L66.496 16.032C66.496 16.448 66.272 16.672 65.856 16.672L63.36 16.672C62.944 16.672 62.72 16.448 62.72 16.032L62.72 15.488C62.72 15.072 62.944 14.848 63.36 14.848L65.856 14.848C66.272 14.848 66.496 15.072 66.496 15.488Z" />
        </g>
      </g>
    </g>
    <g id="编组-10">
      <path d="M120 0C124.419 0 128 3.58112 128 8L128 80L0 80L0 8C0 3.58112 3.58112 0 8 0L120 0Z" id="矩形-23" fill="#FFFFFF" stroke="none" />
      <g id="{;}-复制-7" transform="translate(32 8)">
        <g id="{;}" fill="#00CCB8">
          <path d="M15.872 18.368L16.192 18.368C17.408 18.368 18.112 17.664 18.112 16.448L18.112 12.48C18.112 11.264 17.408 10.56 16.192 10.56L13.952 10.56C9.344 10.56 6.976 13.056 6.976 17.856L7.04 31.04C7.04 33.536 5.696 33.92 4.352 34.176C3.904 34.24 3.648 34.88 3.648 36.096L3.712 39.168C3.712 40.32 3.968 41.024 4.48 41.088C5.696 41.28 7.04 42.048 7.04 44.544L7.04 56.512C7.04 62.144 10.176 64 14.08 64L16.32 64C17.536 64 18.24 63.296 18.24 62.08L18.24 58.112C18.24 56.896 17.536 56.192 16.32 56.192L16 56.192C14.912 56.192 14.336 55.36 14.336 53.76L14.336 44.288C14.336 41.792 13.568 38.848 11.52 37.696C11.904 37.504 12.416 36.928 13.504 35.648C13.504 35.648 13.632 35.264 13.952 34.496Q14.336 33.44 14.336 32L14.336 20.8C14.336 19.328 14.848 18.368 15.872 18.368ZM29.248 31.36L35.648 31.36C36.864 31.36 37.568 30.656 37.568 29.44L37.568 25.6C37.568 24.384 36.864 23.68 35.648 23.68L29.248 23.68C28.032 23.68 27.328 24.384 27.328 25.6L27.328 29.44C27.328 30.656 28.032 31.36 29.248 31.36ZM27.392 58.24L31.296 58.24C32.384 58.24 33.152 57.728 33.472 56.704L37.376 45.056C37.824 43.776 37.184 42.88 35.776 42.88L29.632 42.88C28.48 42.88 27.712 43.392 27.52 44.608L25.6 56.192C25.408 57.536 26.112 58.24 27.392 58.24ZM48.384 56.192L48.064 56.192C46.848 56.192 46.144 56.896 46.144 58.112L46.144 62.08C46.144 63.296 46.848 64 48.064 64L50.304 64C54.912 64 57.28 61.504 57.28 56.704L57.216 43.52C57.216 41.024 58.56 40.64 59.904 40.384C60.352 40.32 60.608 39.68 60.608 38.464L60.544 35.392C60.544 34.24 60.288 33.536 59.776 33.472C58.56 33.28 57.216 32.512 57.216 30.016L57.216 18.048C57.216 12.608 54.08 10.56 50.176 10.56L47.936 10.56C46.72 10.56 46.016 11.264 46.016 12.48L46.016 16.448C46.016 17.664 46.72 18.368 47.936 18.368L48.256 18.368C49.344 18.368 49.92 19.2 49.92 20.8L49.92 30.272C49.92 32.768 50.688 35.712 52.736 36.864C52.352 37.056 51.84 37.632 50.752 38.912C50.752 38.912 50.624 39.296 50.368 40C50.112 40.768 49.984 41.6 49.92 42.56L49.92 53.76C49.984 55.232 49.408 56.192 48.384 56.192Z" />
        </g>
      </g>
    </g>
  </g>
</svg>